<svg id="Layer_1" data-name="Layer 1" xmlns="http://www.w3.org/2000/svg" viewBox="0 0 170.08 198.43"><defs><style>.cls-1{fill:#c01f1e;}.cls-2{fill:#f18812;}.cls-3{fill:#671e18;}.cls-4{fill:#c96d14;}.cls-5{fill:#92191b;}.cls-6{fill:#ee8b71;}</style></defs><path class="cls-1" d="M155.45,156.49c-13.37-.33-25.79,1.24-36.42,10.75-7.17,6.42-17.29,10.42-26.17,4.6C79.23,162.9,63.79,161.72,48.61,159c-4.24,8.85-11.26,13.55-21.79,13.08C.63,147-6.21,116.85,5.47,84,16.53,52.83,42.56,39.29,75.33,36.2c4.56,4.34,4.83,9.41,2.77,14.87-2.42,5.48-9.77,5.64-13.52,12.21,11.79,7.37,24.51,7.36,35.88,1.82,9.67-4.72-3.5-11.82-.91-18.21,2.19-5.3,4.82-9.91,12.13-7.46,16.53,3.94,31,11,40.42,25.35C173.82,89.65,175.12,125.16,155.45,156.49Z"/><path class="cls-2" d="M26.83,172.08,49,158.26c13.1-5.36,25.71-5.07,36.71,4.3,13.34,11.37,25.21,8.7,35.71-3.18,10.69-12.1,21.78-12.32,34.09-2.9C126,209.71,53.67,206.89,26.83,172.08Z"/><path class="cls-3" d="M75.36,52.62l0-16.42C81.89,27,80.06,13.59,91.39,6.84c9.38,8,21.23,14.32,20.83,28.85a4.22,4.22,0,0,0-.54,3.74l-9.8,9C98.62,57,96.11,67.22,84.13,66.93,75.77,66.72,74.69,59.49,75.36,52.62Z"/><path class="cls-4" d="M112.22,35.69c-5.17-10.8-22.31-13.6-20.82-28.85,9.38-8.8,19.32-7.22,26.76,1.25C127.39,18.6,118.85,27.36,112.22,35.69Z"/><path class="cls-5" d="M75.36,55C89,78.39,93,52.15,101.88,51.28,103,58.06,118.94,58.35,113,67c-3.94,5.68-13.66,6.3-21.67,6.82-5.07.33-10.39.76-15.27-.14C68,72.17,55.2,73,54.94,64.43,54.67,55.4,66.6,55.41,75.36,55Z"/><path class="cls-6" d="M89.39,102.32l9,.73c.75,5.73,2.35,13.23-7.17,11.38C83.51,112.94,87.53,106.79,89.39,102.32Z"/><path class="cls-6" d="M72.51,126.8c-1.25,7.4-4,9.37-6.94,8.3-2.26-.81-4.86-3.82-5.08-6-.31-3.08,2.89-5.2,6.15-4.66A18.83,18.83,0,0,1,72.51,126.8Z"/><path class="cls-6" d="M42.81,108.75c-3-.9-6.2-1.45-5.53-5.22.58-3.29,3.35-4.48,6.31-3.71a6.47,6.47,0,0,1,4,3.77C48.56,107.25,45.31,107.92,42.81,108.75Z"/><path class="cls-6" d="M22.66,128.58c-3-.91-6.2-1.46-5.53-5.22.58-3.3,3.35-4.48,6.31-3.71a6.45,6.45,0,0,1,4,3.77C28.41,127.08,25.16,127.75,22.66,128.58Z"/><path class="cls-6" d="M151.21,119.93c1.14,1.19,3.81,2.7,4,4.51.42,3.22-2.06,5.37-5.61,5.12-2.93-.2-4.17-2.64-4.13-5S147.33,120.29,151.21,119.93Z"/><path class="cls-6" d="M112,149.74c-4,0-6-1.22-6.35-4-.42-3.58,1.63-6.1,5.2-5.54,1.89.29,4.56,2.94,4.7,4.7S113,148.49,112,149.74Z"/><path class="cls-6" d="M37.87,145.68c-1.45,7.37-4.21,9.27-7.17,8.12-2.23-.87-4.75-3.93-4.91-6.17-.22-3.08,3-5.13,6.28-4.5A19.16,19.16,0,0,1,37.87,145.68Z"/><path class="cls-6" d="M25.07,77.26c-3-1-6.15-1.62-5.39-5.37.67-3.27,3.47-4.38,6.41-3.54A6.46,6.46,0,0,1,30,72.22C30.86,75.91,27.59,76.49,25.07,77.26Z"/><path class="cls-6" d="M123.88,80.5l9,.73c.76,5.73,2.36,13.24-7.16,11.39C118,91.12,122,85,123.88,80.5Z"/><path class="cls-6" d="M68.89,83.36l9,.73c.75,5.72,2.35,13.23-7.17,11.38C63,94,67,87.83,68.89,83.36Z"/><path class="cls-6" d="M126.79,120.2c-3-1-6.15-1.62-5.38-5.37.67-3.27,3.47-4.38,6.41-3.54a6.46,6.46,0,0,1,3.91,3.87C132.58,118.85,129.32,119.43,126.79,120.2Z"/></svg>