<svg id="Layer_1" data-name="Layer 1" xmlns="http://www.w3.org/2000/svg" viewBox="0 0 1920 1080"><defs><style>.cls-1{fill:#f4e9cf;}.cls-2{fill:#97d5f0;}.cls-3{fill:#5cc0cd;}.cls-4,.cls-5{fill:#9aa921;}.cls-11,.cls-4{opacity:0.4;}.cls-6{fill:#fff;}.cls-7{fill:#eeeded;}.cls-8{fill:#c9875f;}.cls-9{fill:#2c8c36;}.cls-10{fill:#329e37;}.cls-11,.cls-12{fill:#c28155;}.cls-13{fill:#a2d7e0;}</style></defs><rect class="cls-1" x="-1" y="-2" width="1920" height="1081"/><path class="cls-2" d="M2,1080.86V1025s134.46-22.52,203.4-29c68.39-6.42,143.39-122,265.43-70s153.56-82,277.63-13,135.69-83.64,263.4-39C1132,916,1102.3,727.87,1281,832c22.32,13,68-108,158-51,71.39,45.21,108-57,212-19,59,21.56,77.54,95,105,70s38.61-40,97-54c42-10.08,66,9,66,9v291.6"/><path class="cls-3" d="M2,1080.86V1057s134.46-22.52,203.4-29c68.39-6.42,143.39-122,265.43-70s153.56-82,277.63-13,135.69-83.64,263.4-39C1132,948,1102.3,759.87,1281,864c22.32,13,68-108,158-51,71.39,45.21,108-57,212-19,59,21.56,77.54,95,105,70s38.61-40,97-54c42-10.08,66,9,66,9v259.6"/><path class="cls-4" d="M1424.66,884.18s-26.09-49.42-16.23-112c13.15-83.53,106-245.95,145.56-71.58,0,0,72.56-78.1,105.65-37.48,35.1,43.08,27.08,54.91,42.87,159.45,4.26,28.18-6.28,94.44-83.48,66.19-12.31-4.5-48.14-57.91-101.54-22.56C1517.49,866.16,1468.56,921.79,1424.66,884.18Z"/><path class="cls-5" d="M1429.66,904.18s-26.09-49.42-16.23-112c13.15-83.53,106-245.95,145.56-71.58,0,0,72.56-78.1,105.65-37.48,35.1,43.08,27.08,54.91,42.87,159.45,4.26,28.18-6.28,94.44-83.48,66.19-12.31-4.5-48.14-57.91-101.54-22.56C1522.49,886.16,1473.56,941.79,1429.66,904.18Z"/><path class="cls-6" d="M1637.06,199.52s-137.21,13.28-110.65-66.39,77.46-45,77.46-45,41.31-139.42,161.55,13.28c0,0,58.28-30.25,59.75,46.47.75,38.92-17,38.36-33.19,48C1772.33,207.44,1743.3,209.22,1637.06,199.52Z"/><path class="cls-7" d="M1648.87,215s-137.21,13.28-110.66-66.39,77.46-45,77.46-45S1657-35.8,1777.22,116.9c0,0,58.28-30.25,59.76,46.47.75,38.93-17,22.87-33.2,32.46C1784.14,207.44,1755.11,224.71,1648.87,215Z"/><path class="cls-6" d="M1644.71,113a8.31,8.31,0,0,1-8.28-8.35c0-26.27,21.2-47.65,47.25-47.65a8.35,8.35,0,0,1,0,16.7,30.86,30.86,0,0,0-30.7,31A8.31,8.31,0,0,1,1644.71,113Z"/><path class="cls-6" d="M1474.09,204.82c6.19-11.44,13.79-15.59,23.85-13.14,6.35,1.54,11,5.27,13.21,11.34,1.14,3.19,2.38,4.48,6.13,4.95,4.11.53,9.86,2.07,11.55,5,4.75,8.27,16.16,10.22,18.55,20.33,2,8.54-2.65,16.74-11.41,20.13a16.76,16.76,0,0,0-6.76,5.11c-5.53,7.07-12.62,9.85-21.52,9.05-2.08-.18-4.25.53-6.37.86a4.34,4.34,0,0,0-1.06.42c-7.85,3.32-14.6-2-21.66-2.5-8-.54-14.89-.49-20.6-6.7a8.11,8.11,0,0,0-5.29-2c-9.16-.29-16.39-5.88-17.51-13.91-1.29-9.29,3.6-16.49,12.74-19.33a6.75,6.75,0,0,0,4-3.58C1455.72,208.66,1461,204.64,1474.09,204.82Z"/><path class="cls-7" d="M1476.09,215.82c6.19-11.44,13.79-15.59,23.85-13.14,6.35,1.54,11,5.27,13.21,11.34,1.14,3.19,2.38,4.48,6.13,4.95,4.11.53,9.86,2.07,11.55,5,4.75,8.27,16.16,10.22,18.55,20.33,2,8.54-2.65,16.74-11.41,20.13a16.76,16.76,0,0,0-6.76,5.11c-5.53,7.07-12.62,9.85-21.52,9.05-2.08-.18-4.25.53-6.37.86a4.34,4.34,0,0,0-1.06.42c-7.85,3.32-14.6-2-21.66-2.5-8-.54-14.89-.49-20.6-6.7a8.11,8.11,0,0,0-5.29-2c-9.16-.29-16.39-5.88-17.51-13.91-1.29-9.29,3.6-16.49,12.74-19.33a6.75,6.75,0,0,0,4-3.58C1457.72,219.66,1463,215.64,1476.09,215.82Z"/><path class="cls-6" d="M1483.83,225.63a2.84,2.84,0,0,1-2.83-2.85,16.26,16.26,0,0,1,16.17-16.31,2.86,2.86,0,0,1,0,5.72,10.57,10.57,0,0,0-10.51,10.59A2.83,2.83,0,0,1,1483.83,225.63Z"/><path class="cls-6" d="M1432.24,67c11.18-1.59,20.16,1.49,26.13,11.41,3.62,6,4,12.35,2.17,19a9.06,9.06,0,0,0,0,5.41c3.88,9.47,2.51,18.93-4,25.23-6.7,6.51-15.76,7.7-25.21,3.33-.48-.22-1-.41-1.45-.6-8.56,12.21-22.52,12.1-29.15.29-5.4,0-10.24.36-15-.17-2-.23-4.91-1.91-5.6-3.64-2.79-7-8.54-11.53-13-17.13-5.27-6.54-3.33-16.43,2.75-22.38a11.44,11.44,0,0,0,3.18-6.52,19.15,19.15,0,0,1,18.08-17.24,8.31,8.31,0,0,0,5.31-2.29c10.68-12.55,26.78-11,34.75,3.45C1431.59,65.83,1431.91,66.44,1432.24,67Z"/><path class="cls-7" d="M1434.26,75.81c11.18-1.59,20.16,1.48,26.12,11.41,3.62,6,4,12.35,2.18,19a9.07,9.07,0,0,0,0,5.41c3.89,9.47,2.52,18.93-4,25.23-6.7,6.51-15.76,7.7-25.2,3.33-.48-.22-1-.41-1.46-.6-8.56,12.21-22.51,12.1-29.14.29-5.4,0-10.25.36-15-.17-2-.23-4.9-1.91-5.59-3.64-2.8-7-8.54-11.53-13-17.13-5.26-6.54-3.33-16.43,2.76-22.38a11.53,11.53,0,0,0,3.18-6.52,19.14,19.14,0,0,1,18.08-17.24,8.34,8.34,0,0,0,5.31-2.29c10.67-12.55,26.78-11,34.74,3.45Z"/><path class="cls-6" d="M1406.67,90.77a2.84,2.84,0,0,1-2.83-2.85A16.26,16.26,0,0,1,1420,71.61a2.86,2.86,0,0,1,0,5.72,10.56,10.56,0,0,0-10.5,10.59A2.84,2.84,0,0,1,1406.67,90.77Z"/><path class="cls-6" d="M1351.19,204.53c-2.17,19-19.6,35.2-38.9,33.32-12.43-1.2-24.49-.79-36.74-.8s-23.42-.45-35.62,3.61c-7.65,2.55-17.83-2.45-30-4.62-9.25,6.36-22.83,8.55-37.27,2.87-10-3.92-14.9-12.86-21.66-20.34-6.28-6.95-18.56-8.47-24.88-15.42-14.33-15.75-6.72-42.66,13.22-50.47,5.16-2,8.12-4.62,10.36-9.69,1.82-4.12,5.26-8.53,9.17-10.5,5.88-3,7.72-7.15,8.85-13a36.91,36.91,0,0,1,29.33-29c16.09-3,31.24,3.09,39.32,16.65,2.71,4.53,5.58,6.47,10.74,7.47,9.76,1.88,16.89,8,22.44,16.39a14.74,14.74,0,0,0,9.2,5.93c11.32,1.49,21,6,26.78,15.66,3.62,6,7.88,8.42,14.48,9.57C1340.15,165.65,1353.5,184.18,1351.19,204.53Z"/><path class="cls-7" d="M1360.74,215.41c-2.17,19-19.6,35.21-38.9,33.33-12.43-1.2-24.49-.79-36.74-.81s-23.42-.45-35.62,3.62c-7.65,2.54-17.82-2.45-30-4.62-9.24,6.36-22.82,8.54-37.26,2.86-10-3.92-14.91-12.86-21.66-20.33-6.29-7-18.56-8.47-24.89-15.43-14.33-15.74-6.72-42.65,13.22-50.47,5.16-2,8.12-4.62,10.36-9.69,1.83-4.12,5.27-8.53,9.17-10.5,5.88-3,7.72-7.15,8.85-13a36.91,36.91,0,0,1,29.33-29c16.09-3,31.25,3.08,39.33,16.64,2.7,4.54,5.57,6.47,10.73,7.47,9.76,1.89,16.89,8,22.45,16.4a14.7,14.7,0,0,0,9.19,5.93c11.32,1.49,21,5.95,26.78,15.66,3.62,6,7.89,8.42,14.48,9.56C1349.7,176.54,1363.05,195.06,1360.74,215.41Z"/><path class="cls-6" d="M1188.7,153a6.63,6.63,0,0,1-6.53-6.72c0-21.14,16.73-38.34,37.3-38.34a6.72,6.72,0,0,1,0,13.44c-13.36,0-24.23,11.17-24.23,24.9A6.63,6.63,0,0,1,1188.7,153Z"/><path class="cls-8" d="M1710.74,563.86c-.41.35-.83.67-1.28,1,1.15,8.39-4.2,20.18-5.14,32.51-1.13,14.83,1.37,30.47-7.28,42.21,0,0-1.45,52.39-26.19,66.94,0,0-7,29-13.1,26.19-6.56-3.07-44.56-41.57-39.29-46.57,24.51-23.22,40,4.37,44.76-120.93l-.42-.11s-24-8.47-18.15-17.2,50.94-23.29,66.95-8.74C1721.52,548.18,1724.45,552.19,1710.74,563.86Z"/><path class="cls-9" d="M1758.88,536.7c-10.77,2.22-22.3-3.05-36.43,3.72,23.59,4.63,43.39,9.65,61.63,19.13,23.15,12,34.48,32,37.39,57.28.47,4.07,1.61,9.37-3.4,11.76s-8-2.15-11.59-4.45a33.25,33.25,0,0,1-3-2.37c-14.33-11.92-14.33-11.93-25.14,4.13-6.9-3-7.94-10.54-11.71-15.77-2.53-3.51-6.38-10.21-7.81-9.75-25.91,8.27-23.08-18.71-34.65-27.68-6.36-7.37-14.24-11.62-24.11-11.85-7.37-1.13-14.71-2.76-22.12-3.31-25.51-1.87-29.82,1.41-36,26.16-12-5.41-24-5.29-32.51,5-5.43,6.55-8.88,19.32-17.39,16.55-9.84-3.2-7-15.58-2.19-29.85a134.87,134.87,0,0,0-25.54,31.19c-1.93,3.14-3.3,7.95-7.78,7.19-5.58-.93-5-6.52-5.63-10.73-4.41-30.83,16.58-61.46,50.83-73.74,7.63-2.74,15.68-4.3,22.07-6-12.71-26.32-35.62-23.13-60.26-16,2.77-12,12.49-14,17.9-22.38-12.53-2.64-24-4.62-35.22-7.54-11.77-3.07-12.5-8.42-3.14-16.54,25.37-22,72.42-19.42,96.87,6,8.64,9,16.73,18.49,26.75,29.61-1.91-37.41,9.52-66.34,41-85.31,4.43-2.67,8.35-5.58,13.77-5.23s12.12-2.87,16,2.75c4.14,6.05-2.11,10.43-4.72,15-6.54,11.43-13.68,22.5-20.72,33.94,7.19,5.34,15.52-3.23,22.48,4-9.47,15.72-29.43,23.81-34.54,45.79,14-3.5,20.38-14.42,29.74-20.6,26.4-17.43,54.3-17.42,83.29-10.71,4.75,1.1,10.11,3.37,13.24,6.85,5.64,6.29,16.65,11.74,13.14,21.29-3.58,9.71-14.46,3.18-22.06,4.17-4.32.56-8.7.63-13.18.93,0,2-.35,3.31.06,4.37,2.52,6.54,12.17,12.6,6.76,19.27-4.77,5.89-12.7-2.64-19.3-2.56-9.49.11-20.36-14.49-28.48,2.22Z"/><path class="cls-10" d="M1777.76,506.5c-11.92,2.45-24.69-3.38-40.35,4.11,26.13,5.13,48.06,10.69,68.27,21.19,25.64,13.33,38.18,35.49,41.41,63.45.52,4.51,1.78,10.38-3.77,13s-8.88-2.38-12.83-4.93a33.91,33.91,0,0,1-3.27-2.63c-15.88-13.2-15.88-13.2-27.84,4.59-7.65-3.37-8.8-11.69-13-17.48-2.8-3.88-7.06-11.3-8.65-10.8-28.7,9.17-25.57-20.72-38.38-30.65-7-8.17-15.77-12.88-26.7-13.12-8.17-1.26-16.29-3.07-24.51-3.67-28.25-2.08-33,1.56-39.82,29-13.25-6-26.55-5.87-36,5.55-6,7.25-9.84,21.4-19.26,18.34-10.91-3.55-7.7-17.27-2.43-33.07a149.18,149.18,0,0,0-28.29,34.55c-2.14,3.47-3.65,8.8-8.62,8-6.18-1-5.57-7.23-6.23-11.89-4.88-34.14,18.36-68.07,56.3-81.67,8.45-3,17.36-4.76,24.45-6.66-14.09-29.16-39.46-25.62-66.76-17.71,3.07-13.33,13.84-15.54,19.83-24.79-13.87-2.92-26.58-5.11-39-8.35-13-3.4-13.84-9.32-3.47-18.32,28.1-24.37,80.21-21.51,107.3,6.66,9.56,9.95,18.53,20.48,29.62,32.81-2.11-41.45,10.55-73.49,45.39-94.5,4.91-3,9.25-6.17,15.25-5.79s13.43-3.18,17.69,3c4.59,6.7-2.34,11.56-5.22,16.6-7.24,12.65-15.16,24.92-23,37.59,8,5.91,17.19-3.58,24.9,4.42-10.48,17.42-32.59,26.37-38.25,50.71,15.45-3.87,22.57-16,32.94-22.81,29.24-19.3,60.14-19.29,92.25-11.86,5.26,1.22,11.2,3.73,14.66,7.58,6.26,7,18.45,13,14.56,23.59-4,10.75-16,3.52-24.43,4.61-4.78.62-9.64.71-14.6,1,0,2.17-.38,3.67.07,4.84,2.78,7.24,13.47,14,7.48,21.34-5.28,6.52-14.07-2.92-21.38-2.84-10.51.13-22.54-16-31.54,2.46Z"/><path class="cls-11" d="M1411.2,830.17c.16-3.53,8-68,44-54,31.82,12.38,33,35,48,27,4.5-2.4,11-47,44-48,48.35-1.46,30.73,53.35,50,45,30-13,13-49,50-41,26.31,5.69,45,42,53,70,2.45,8.58-2,33-2,33,.39,3.71-21.61,67.92-123.89,1.63a33.16,33.16,0,0,0-35.54-.3c-30.63,19-94.9,51.17-115.57,18.67C1401.92,848.74,1410.66,841.48,1411.2,830.17Z"/><path class="cls-12" d="M1419.2,850.17c.16-3.53,8-68,44-54,31.82,12.38,33,35,48,27,4.5-2.4,11-47,44-48,48.35-1.46,30.73,53.35,50,45,30-13,13-49,50-41,26.31,5.69,45,42,53,70,2.45,8.58-2,33-2,33,.39,3.71-21.61,67.92-123.89,1.63a33.16,33.16,0,0,0-35.54-.3c-30.63,19-94.9,51.17-115.57,18.67C1409.92,868.74,1418.66,861.48,1419.2,850.17Z"/><path class="cls-13" d="M1714.59,927.43c-89.37,3.92-178.75,6.7-268.23,4.3-16.84-.45-33.79,2.76-50.5-1.8a46.52,46.52,0,0,0-25.95-8.81c-9.6-.28-20-3.49-22.73-13.17-2.82-9.85,7.62-13.44,14.39-17.84,5.65-3.68,10.37-7.74,10.66-15.06,21.58.77,41.8-21.75,64.43-3.61,25.09,20.11,50.51,15.95,75.72.34,18.09-11.21,36.77-11.24,53.09,1.15,23.34,17.74,44.82,14.12,67.55,0,20.52-12.75,41.09-11.89,60.92,2.17,13.73,9.74,28.63,14.17,45.42,10,6.46,9.16,27.09,6.94,23.14,22.46-3.64,14.31-19.31,13.94-32.43,14.56C1724.84,922.32,1719.75,925.56,1714.59,927.43Z"/></svg>