<svg xmlns="http://www.w3.org/2000/svg" xmlns:xlink="http://www.w3.org/1999/xlink" viewBox="0 0 595.28 841.89"><defs><style>.cls-1,.cls-12,.cls-14{fill:none;}.cls-2{fill:#7c8ac4;}.cls-3{fill:#a8bdcb;}.cls-4{fill:#d09fc9;}.cls-5{fill:#3c4644;}.cls-6{fill:#824c98;}.cls-7{fill:#f08687;}.cls-8{fill:#fef0e0;}.cls-9{fill:#e79;}.cls-10{fill:#fde8da;}.cls-11{fill:#443515;}.cls-12{stroke:#433518;stroke-width:5px;}.cls-12,.cls-14{stroke-miterlimit:10;}.cls-13{fill:#f39882;}.cls-14{stroke:#fff;stroke-width:2px;}.cls-15{fill:#e2eab1;}.cls-16{fill:#99a921;}.cls-17{clip-path:url(#clip-path);}</style><clipPath id="clip-path"><path class="cls-1" d="M246,468.25l93.32,4,57.77,173-3.82,15.16L372.56,662,214.48,674.29l-9.35.73s-.24-18.79,1.38-45.65c.16-2.68.35-5.44.55-8.27C210.5,572.75,220,504.08,246,468.25Z"/></clipPath></defs><g id="Layer_1" data-name="Layer 1"><path class="cls-2" d="M393.42,638.12s37.46,12.62,58.24-4.27c14.18-11.51,36.66-7.64,49.61-16.83,18.3-13,22.44-7.68,22.44-7.68s37.2,19.28-12.7,34.25c-21,6.3-29.63,11.69-44.58,15.36-8.87,2.17-19.49,11.22-31.3,8.85C404.36,661.65,393.2,666,393.2,666Z"/><path class="cls-3" d="M213.1,558.56c-33.41-8.86-243.22-51.95-139.67-89.12,51.82,13,111.37,27,164.34,34.23a1.09,1.09,0,0,1,.72,1.74c-4.35,5.78-2.09,9.32-5.9,21.85C226.66,546.74,217.48,552.66,213.1,558.56Z"/><path class="cls-4" d="M128.75,331.85s-.05,0-.06,0v-.08Z"/><path class="cls-5" d="M379.13,356.55c-8.55.18-17.08-.26-25.35-3.48a36.82,36.82,0,0,1,12.55-5.27A109,109,0,0,0,379.13,356.55Z"/><path class="cls-3" d="M324,293.88c16.37,44,68.53,43.13,95.34,66.14,19,7.32,38.11,14.21,59.28,4.64-35.83,145.12-367.2,140.2-386.13-15.9,4.89-108.13,53-211.22,77.06-316.65,2.83-9.9,3.45-25.94,16.19-26.63,14.94-.8,15.35,16.15,19.9,26.13,16,35.12,32.68,70.13,45.34,106.33,6.81,19.44,15.92,29.16,38.05,26.31,5,4.91,5.23,11.12,5.3,17.27"/><path class="cls-2" d="M472.77,371.08a4.23,4.23,0,0,1-2.52.31c-7.84,5.21-19.61,5.45-36.57-2.26a91.7,91.7,0,0,1-54.55-12.58c-39.34-.87-29.08-12.49-42.51-40.9-35.17-18-52-110.72-47.62-151.4,18.64,2.24,27.64-4.67,34.06-22.08C337.4,114.3,366.75,13.63,389.07,4c42,61.08,46.94,154.23,72,226.87,10.24,26,23.8,73.17,22.59,106.47C483.69,337.34,485.76,366.35,472.77,371.08Z"/><path class="cls-6" d="M128.91,332l-.14-.15s0,0,0,0S128.88,332,128.91,332Z"/><path class="cls-7" d="M155.77,200.64c-44.32,66.14,26.5-145.45,28.45-164.74,28.46,35.64,35.4,78,54.29,118.22,1.53,4,8.93,11.9-3.44,14.12-27.65-.39-30.71-60.31-44.06-79.41C180.7,124.4,177.71,169.81,155.77,200.64Z"/><path class="cls-8" d="M173.43,192.17l17.9-71.81,22.29,51.54C202.19,182,188.09,187.57,173.43,192.17Z"/><path class="cls-9" d="M345.72,170.88c-6.11-2.47-15.06-1.69-10.4-13,16.88-41,32.2-82.52,53.42-126.16,17.49,63.38,34,123.14,50.89,184.44-13.22-.61-17.31-9.06-23.06-15.4-16.52-35.09-21.27-73-32.86-109.29-7.51,19.14-15.19,39.38-24.16,59.14C356.16,158.07,353.75,166.13,345.72,170.88Z"/><path class="cls-10" d="M360,174.92l23.53-52.5c5.41,17.87,9.6,32.41,14.24,46.82,3.36,10.42-.19,15.53-12.13,15.15Z"/><path class="cls-5" d="M316.37,420.3c-21.67-17.64-68.94,26.22-75.49-11.79,4.37-6.33,7.13.24,10.07,2.83,21.18,15.38,39.64-19.6,62.62-1.68,9.05,5,19,3.81,26.16-5.57C362.17,395.89,332.43,429.24,316.37,420.3Z"/><path class="cls-5" d="M483.15,344.64c.27-2.35.44-4.78.54-7.3A22.75,22.75,0,0,1,483.15,344.64Z"/><path class="cls-11" d="M211.4,309.43c-3.41,21.93-13,38.66-21.51,37.34s-12.58-20.18-9.16-42.11a98.08,98.08,0,0,1,3.39-14.53c4.51-14.31,11.65-23.81,18.12-22.81C210.7,268.64,214.81,287.48,211.4,309.43Z"/><line class="cls-12" x1="167.34" y1="273.35" x2="185.34" y2="291.34"/><path class="cls-11" d="M348.68,308.76c3.42,21.94,13,38.66,21.52,37.34s12.57-20.17,9.16-42.11A99.21,99.21,0,0,0,376,289.47c-4.51-14.31-11.66-23.81-18.12-22.82C349.38,268,345.27,286.81,348.68,308.76Z"/><line class="cls-12" x1="392.74" y1="272.68" x2="374.75" y2="290.68"/><path class="cls-13" d="M469.58,337.42c-1.85-11.08-17.9-20.28-30.47-14.66s-16.87,7.71-15.82,26,23.7,20.11,35.82,12.91S471.44,348.49,469.58,337.42Z"/><path class="cls-13" d="M111.33,335.65c1.85-11.08,17.9-20.28,30.47-14.67s16.87,7.72,15.82,26-23.7,20.11-35.82,12.91S109.47,346.72,111.33,335.65Z"/><ellipse class="cls-11" cx="280.93" cy="347.53" rx="15.28" ry="8.64"/><path class="cls-3" d="M337,474.07a.69.69,0,0,0,.59-.77c4.48-3.87,9.12-2.57,13.63-.2,22.82,12,45.2,24.85,68.5,35.76C445.48,521,446.49,545,431.31,563.4c-12.73,15.43-24.8,31.41-37,47.28-10.73,14-21.13,19.28-31.68,5-.65-.88-6.09-6.84-7-7.56-1.86-6.21-5.36-12.2-2.16-19,1.2-2.57-.18-4,6.47-10.16,11.19-7.76,10.57-13.16,16.83-24.8,2.05-2.67,1.06-7.41-.58-8.15-5.14-2.32-10.33-4.52-15.51-6.76-7-2.38-11-8.58-16.5-12.85-2.58-8.77-7.72-16.66-8.84-25.93C333.63,491.51,332.83,482.64,337,474.07Z"/><path class="cls-3" d="M205.8,675c63.65-6.37,127.7-8.25,190-21.26-2.82,18,.4,27.16-12.66,44.89-13.68,18.57-45.74,29.79-70.72,31.76-24.08,1.89-58.72,2.19-76.29-11.31S213.32,692.44,205.8,675Z"/><path class="cls-3" d="M265.47,838.2c-2.69-9.17-3.44-18.85-5-28.19-4.59-26.67-6.37-53.89-13.62-80.1-2.3-8.31,1.71-12.31,9.57-11.53,13.89,1.38,27.75,3.52,41.76,2.84,1.15,32,1.76,64,3.68,96,1,17.14-7.9,23.75-21.75,23"/><path class="cls-3" d="M367.84,787.32A9.81,9.81,0,0,1,360,787c-5.61-2.73-11.09-5.84-16.9-8-14.14-5.19-18.86-17.1-20.5-31.08-.54-4.57-2.65-9-1.37-13.8-.52-1.91-1.05-3.81-1.57-5.71,12.66-1.25,24.53-5.58,36.25-10.52,2-.84,3.64-3,6-1,2,1.61,2.45,3.84,2.18,6.25s-.74,4.58-1.14,6.87q0,7.63,0,15.23c4.47,3,9,6,12.62,10.12C384,765,379.54,783.08,367.84,787.32Z"/><path class="cls-14" d="M206.75,677.7c18.25-.06,20.73-3.94,39-4,6.35,0,34.85-2.83,41.19-3.1,13.68-.59,21.11-1,34.48-4,6.23-1.37,12.33-.17,18.67-.91,8.44-1,17.09-3.24,25.56-4,10.95-1,17.92-2.73,27.58-8"/><circle class="cls-15" cx="256.1" cy="560.76" r="22.52"/><circle class="cls-15" cx="322.49" cy="582.38" r="22.52"/><circle class="cls-15" cx="343.98" cy="636.1" r="22.52"/><circle class="cls-15" cx="273.03" cy="613.14" r="22.52"/><circle class="cls-15" cx="309.95" cy="522.53" r="22.52"/><path class="cls-16" d="M246.75,468.26l93.33,4,57.77,173L394,660.36,373.29,662,215.21,674.31l-9.34.73s-.25-18.79,1.38-45.65c.16-2.68.34-5.45.54-8.28C211.23,572.76,220.73,504.09,246.75,468.26Z"/><circle class="cls-15" cx="263.4" cy="548.42" r="23.21"/><circle class="cls-15" cx="341.29" cy="570.74" r="23.21"/><circle class="cls-15" cx="365.4" cy="631.56" r="23.21"/><circle class="cls-15" cx="316.02" cy="521.3" r="23.21"/><circle class="cls-15" cx="261.54" cy="611.86" r="23.21"/><circle class="cls-15" cx="313.47" cy="627.97" r="23.21"/></g><g id="Layer_3" data-name="Layer 3"><g class="cls-17"><circle class="cls-15" cx="261" cy="665.86" r="22.52"/><circle class="cls-15" cx="197.14" cy="645.74" r="22.52"/><circle class="cls-15" cx="275.93" cy="477.41" r="22.52"/><circle class="cls-15" cx="232.96" cy="501.72" r="22.52"/><circle class="cls-15" cx="204.31" cy="586.64" r="22.52"/></g></g></svg>