<svg id="Layer_1" data-name="Layer 1" xmlns="http://www.w3.org/2000/svg" viewBox="0 0 170.08 198.43"><defs><style>.cls-1{fill:#671e18;}.cls-2{fill:#b51f1e;}.cls-3{fill:#c96d14;}.cls-4{fill:#92191b;}.cls-5{fill:#eb683a;}</style></defs><path class="cls-1" d="M157.56,59.24c-6.57.44-7.47,4-8.15,9.65-1.92,15.74-4.86,31.37-7.4,47-6.21-3.5-13.13-3.87-20-4.3a12.62,12.62,0,0,1-2-4c-2.35-7.87,3.87-16.22.52-24.83-12.07,1.85-19,15.45-31.72,15.44A18.63,18.63,0,0,1,85,97.88q-4.06-8.53-8.1-17.09s0,0,0,0c8.26-5.24,16.5-10.53,24.81-15.72,11.31-7.08,13.5-13.4-1.48-18.48,9.29-9.26,8.38-23,15.75-33.16,11.55,7.48,23.36,14.36,37.77,15.19,10.5.6,15.68,6,16.32,16.12C170.58,53.58,166.78,58.63,157.56,59.24Z"/><path class="cls-2" d="M142,115.93c-6.21-3.5-13.13-3.87-20-4.3a12.62,12.62,0,0,1-2-4c-12.07.32-23.45,2.55-32.34,12a3.52,3.52,0,0,0-1.32,1.76h-.36A8,8,0,0,0,87.53,119c3-6.67,2.16-13.61,1.25-20.53,0-.05,0-.11,0-.16A18.63,18.63,0,0,1,85,97.88q-4.06-8.53-8.1-17.09h0C58.38,67.27,38.79,61.26,17.67,74.66.62,85.47-2.84,101.46,2,119.77c30.48-.37,42.32,6.44,48.65,28l0,0c8.59,1.11,14.06-6.4,22.06-7.87,2.57,10.59-2.36,22.12,5.71,31.34,26.56-8.9,45.61-1.24,56.4,22.69,19.33-3.22,26.33-17.91,29.24-33.35C167.64,141.73,157.72,127,142,115.93Zm-85.7-11.67c-6.87-.12-12.09-4.37-11.78-11.27.26-5.56,3.75-10.23,10.85-9.9,6.71.31,10,4,10.48,10.41C65.79,99.58,63.06,104.37,56.31,104.26Zm88.77,33.1c-.74,6.71-5.57,11.38-12.72,11.19-6.85-.18-9.66-5.16-9.19-11.5.49-6.59,4.57-9.69,11.6-9.82C140.93,127.76,145.83,130.63,145.08,137.36Z"/><path class="cls-2" d="M50.66,147.77c-11.37-17.21-29.83-22.89-48.65-28C32.49,119.4,44.33,126.21,50.66,147.77Z"/><path class="cls-2" d="M65.86,93.5c-.07,6.08-2.8,10.87-9.55,10.76S44.22,99.89,44.53,93c.26-5.56,3.75-10.23,10.85-9.9C62.09,83.4,65.35,87.08,65.86,93.5Z"/><path class="cls-2" d="M88.73,98.27A18.63,18.63,0,0,1,85,97.88q-4.06-8.53-8.1-17.09C84.26,84.45,86.74,91.2,88.73,98.27Z"/><path class="cls-2" d="M134.85,194c-14.69-17.1-34.12-23.21-56.4-22.69C105,162.37,124.06,170,134.85,194Z"/><path class="cls-2" d="M142,115.93c-6.21-3.5-13.13-3.87-20-4.3a12.62,12.62,0,0,1-2-4c1.33,0,2.67,0,4,0C131.23,107.82,138.23,108.62,142,115.93Z"/><path class="cls-2" d="M145.08,137.36c-.74,6.71-5.57,11.38-12.72,11.19-6.85-.18-9.66-5.16-9.19-11.5.49-6.59,4.57-9.69,11.6-9.82C140.93,127.76,145.83,130.63,145.08,137.36Z"/><path class="cls-3" d="M115.94,13.41c-.57,13.13,3.5,28.32-15.75,33.16-15.38,1.07-16.47-10.38-18-20.29-1.62-10.47,2.75-19.5,13-23.7C105.72-1.69,110.5,7.1,115.94,13.41Z"/><path class="cls-4" d="M134.85,194c-26.18,8.45-43.18,1.61-56.4-22.69C105,162.37,124.06,170,134.85,194Z"/><path class="cls-4" d="M50.67,147.8c-24.53,2.72-38.1-5.1-48.66-28,30.48-.37,42.32,6.44,48.65,28C50.66,147.78,50.67,147.79,50.67,147.8Z"/><path class="cls-5" d="M145.08,137.36c-.74,6.71-5.57,11.38-12.72,11.19-6.85-.18-9.66-5.16-9.19-11.5.49-6.59,4.57-9.69,11.6-9.82C140.93,127.76,145.83,130.63,145.08,137.36Z"/><path class="cls-5" d="M65.86,93.5c-.07,6.08-2.8,10.87-9.55,10.76S44.22,99.89,44.53,93c.26-5.56,3.75-10.23,10.85-9.9C62.09,83.4,65.35,87.08,65.86,93.5Z"/></svg>