<svg id="Layer_1" data-name="Layer 1" xmlns="http://www.w3.org/2000/svg" xmlns:xlink="http://www.w3.org/1999/xlink" viewBox="0 0 401.71 138.3"><defs><style>.cls-1{fill:#f2ad77;}.cls-2{fill:#00aec8;}.cls-3{fill:#e9484c;}.cls-4{fill:url(#linear-gradient);}.cls-5{fill:#7d4e24;}</style><linearGradient id="linear-gradient" x1="80.88" y1="73.26" x2="323.45" y2="73.26" gradientUnits="userSpaceOnUse"><stop offset="0" stop-color="#00aec8"/><stop offset="0.22" stop-color="#3a95a9"/><stop offset="0.61" stop-color="#976c77"/><stop offset="0.87" stop-color="#d25258"/><stop offset="1" stop-color="#e9484c"/><stop offset="1" stop-color="#ef7984"/></linearGradient></defs><rect class="cls-1" x="0.17" y="0.04" width="401.21" height="138.06" rx="12"/><path class="cls-2" d="M42,83.3l6.39,11.38h0S28,81.24,22.53,71.57L21.32,69.4a15.3,15.3,0,0,1-1.46-6.52,15.48,15.48,0,0,1,28.5-8.41L41.67,65.13,50,74.22Z"/><path class="cls-2" d="M79.21,63.51A15.27,15.27,0,0,1,77.75,70l-1.21,2.18c-2.74,4.83-9.19,10.6-15,15.18s-10.86,7.93-10.86,7.93L44.33,83.93l8-9.07L44,65.77,50.7,55.11a15.49,15.49,0,0,1,28.51,8.4Z"/><path class="cls-3" d="M356.79,96.61s21.72-14.37,27.57-24.69l1.29-2.32a16.53,16.53,0,0,0-28.88-15.94A16.54,16.54,0,0,0,327.88,69.6l1.3,2.32c5.85,10.32,27.57,24.69,27.57,24.69Z"/><rect class="cls-4" x="80.88" y="69.87" width="242.57" height="6.78"/><path class="cls-5" d="M101,22.92H93v3.24h7.42v3.36H93V37H88.53V19.55H101Z"/><path class="cls-5" d="M113.37,27.84H113a3.89,3.89,0,0,0-.86-.14c-.4,0-.73-.05-1-.05a9.32,9.32,0,0,0-1.58.12,8.91,8.91,0,0,0-1.48.4V37h-4.22V23.83h4.22v1.93a8.87,8.87,0,0,1,2.41-1.59,5.36,5.36,0,0,1,1.89-.39h.5l.49,0Z"/><path class="cls-5" d="M120.09,22h-4.45V18.77h4.45ZM120,37h-4.21V23.83H120Z"/><path class="cls-5" d="M136.86,31.17h-9.63a3,3,0,0,0,1.17,2.36,5.3,5.3,0,0,0,3.19.82,7.11,7.11,0,0,0,2.58-.48,8.22,8.22,0,0,0,2-1h.46v3.38a16.55,16.55,0,0,1-2.68.83,14.29,14.29,0,0,1-2.8.25,9.15,9.15,0,0,1-6-1.77,6.27,6.27,0,0,1-2.1-5.06,6.77,6.77,0,0,1,2-5.15,7.58,7.58,0,0,1,5.46-1.9A6.53,6.53,0,0,1,135.25,25a6.34,6.34,0,0,1,1.61,4.66Zm-4.18-2.47a3,3,0,0,0-.66-2,2.48,2.48,0,0,0-1.93-.67,3.11,3.11,0,0,0-2,.63,2.69,2.69,0,0,0-.87,2Z"/><path class="cls-5" d="M153,37h-4.22V30.44c0-.53,0-1.05-.08-1.58a3.48,3.48,0,0,0-.28-1.16,1.41,1.41,0,0,0-.69-.63,3,3,0,0,0-1.25-.2,3.76,3.76,0,0,0-1.17.19,5.9,5.9,0,0,0-1.27.59V37h-4.22V23.83h4.22v1.45a10.14,10.14,0,0,1,2.15-1.34,5.36,5.36,0,0,1,2.29-.47,4.38,4.38,0,0,1,3.32,1.24,5.12,5.12,0,0,1,1.2,3.7Z"/><path class="cls-5" d="M169.64,37h-4.22V35.59a9.33,9.33,0,0,1-2,1.3,5.35,5.35,0,0,1-2.19.42,4.58,4.58,0,0,1-3.82-1.84,7.88,7.88,0,0,1-1.44-5,8.47,8.47,0,0,1,.48-3,7,7,0,0,1,1.33-2.22A5.58,5.58,0,0,1,159.68,24a5.7,5.7,0,0,1,2.26-.48,6.11,6.11,0,0,1,1.93.25,13.07,13.07,0,0,1,1.55.64V18.77h4.22Zm-4.22-3.61V26.89a4.85,4.85,0,0,0-.94-.27,5.87,5.87,0,0,0-.89-.08,3,3,0,0,0-2.49,1,4.5,4.5,0,0,0-.82,2.87,4.67,4.67,0,0,0,.66,2.8,2.5,2.5,0,0,0,2.13.87,3.91,3.91,0,0,0,1.22-.21A4.79,4.79,0,0,0,165.42,33.34Z"/><path class="cls-5" d="M185,32.79a3.79,3.79,0,0,1-1.82,3.28,8.73,8.73,0,0,1-5,1.24A14.15,14.15,0,0,1,175,37a11.93,11.93,0,0,1-2.29-.73V32.8h.39l.73.49a8.58,8.58,0,0,0,1.17.57,9.74,9.74,0,0,0,1.49.46,7.69,7.69,0,0,0,1.77.19,4.72,4.72,0,0,0,1.84-.27.89.89,0,0,0,.59-.82.73.73,0,0,0-.35-.69,4.47,4.47,0,0,0-1.33-.42c-.31-.07-.73-.14-1.27-.22s-1-.19-1.45-.3a5.11,5.11,0,0,1-2.65-1.46,3.59,3.59,0,0,1-.87-2.46,3.75,3.75,0,0,1,1.79-3.15,8.5,8.5,0,0,1,4.91-1.25,13,13,0,0,1,2.82.3,11.37,11.37,0,0,1,2.11.63v3.32h-.36a8.34,8.34,0,0,0-2.14-1,7.5,7.5,0,0,0-2.42-.41,4.7,4.7,0,0,0-1.71.28c-.47.19-.7.45-.7.8a.84.84,0,0,0,.32.71,4.25,4.25,0,0,0,1.48.49c.43.09.89.17,1.38.25s1,.19,1.49.31a4.69,4.69,0,0,1,2.46,1.36A3.45,3.45,0,0,1,185,32.79Z"/><path class="cls-5" d="M201,37h-4.22V30.44c0-.53,0-1.05-.08-1.58a3.48,3.48,0,0,0-.28-1.16,1.41,1.41,0,0,0-.69-.63,3,3,0,0,0-1.25-.2,3.76,3.76,0,0,0-1.17.19,6.19,6.19,0,0,0-1.28.59V37h-4.21V18.77H192v6.51a10.44,10.44,0,0,1,2.16-1.34,5.36,5.36,0,0,1,2.29-.47,4.38,4.38,0,0,1,3.32,1.24,5.12,5.12,0,0,1,1.2,3.7Z"/><path class="cls-5" d="M209.19,22h-4.45V18.77h4.45Zm-.12,15h-4.21V23.83h4.21Z"/><path class="cls-5" d="M226.73,30.21a8.47,8.47,0,0,1-.5,3,6.43,6.43,0,0,1-1.3,2.19,5.54,5.54,0,0,1-4.18,1.85,6.56,6.56,0,0,1-1.9-.24,9.27,9.27,0,0,1-1.6-.67v5.47H213V23.83h4.22V25.2a10.19,10.19,0,0,1,2-1.25,5.36,5.36,0,0,1,2.33-.48,4.51,4.51,0,0,1,3.81,1.8A8,8,0,0,1,226.73,30.21Zm-4.34.09a4.63,4.63,0,0,0-.65-2.78,2.42,2.42,0,0,0-2.06-.86,4.47,4.47,0,0,0-1.23.18,4.9,4.9,0,0,0-1.2.52V34a3.29,3.29,0,0,0,.9.21c.32,0,.63.05.95.05a3.06,3.06,0,0,0,2.48-1A4.51,4.51,0,0,0,222.39,30.3Z"/><path class="cls-5" d="M256.42,37H252V25.3l-3.23,7.56h-3.09l-3.23-7.56V37h-4.23V19.55h5.21l3.92,8.73,3.9-8.73h5.21Z"/><path class="cls-5" d="M273.55,31.17h-9.63a3.06,3.06,0,0,0,1.18,2.36,5.25,5.25,0,0,0,3.18.82,7.11,7.11,0,0,0,2.58-.48,7.85,7.85,0,0,0,2-1h.47v3.38a16.65,16.65,0,0,1-2.69.83,14.12,14.12,0,0,1-2.79.25,9.18,9.18,0,0,1-6.06-1.77,6.27,6.27,0,0,1-2.1-5.06,6.77,6.77,0,0,1,2-5.15,7.59,7.59,0,0,1,5.47-1.9A6.52,6.52,0,0,1,271.94,25a6.3,6.3,0,0,1,1.61,4.66Zm-4.18-2.47a2.87,2.87,0,0,0-.66-2,2.48,2.48,0,0,0-1.92-.67,3.09,3.09,0,0,0-2,.63,2.7,2.7,0,0,0-.88,2Z"/><path class="cls-5" d="M284.91,36.84a14.2,14.2,0,0,1-1.44.27,13.86,13.86,0,0,1-1.86.1,5.66,5.66,0,0,1-3.65-1,4.21,4.21,0,0,1-1.19-3.4V26.68H275V23.83h1.73V20.08H281v3.75h3.93v2.85H281v4.66c0,.46,0,.86,0,1.2a2.45,2.45,0,0,0,.18.93,1.3,1.3,0,0,0,.58.65,2.42,2.42,0,0,0,1.2.24,3.68,3.68,0,0,0,.86-.14,3.9,3.9,0,0,0,.74-.26h.35Z"/><path class="cls-5" d="M300.35,31.17h-9.63a3,3,0,0,0,1.17,2.36,5.26,5.26,0,0,0,3.19.82,7.15,7.15,0,0,0,2.58-.48,7.94,7.94,0,0,0,2-1h.47v3.38a16.65,16.65,0,0,1-2.69.83,14.12,14.12,0,0,1-2.79.25,9.15,9.15,0,0,1-6.05-1.77,6.27,6.27,0,0,1-2.11-5.06,6.78,6.78,0,0,1,2-5.15,7.56,7.56,0,0,1,5.46-1.9A6.51,6.51,0,0,1,298.73,25a6.3,6.3,0,0,1,1.62,4.66Zm-4.19-2.47a2.92,2.92,0,0,0-.65-2,2.5,2.5,0,0,0-1.93-.67,3.09,3.09,0,0,0-2,.63,2.69,2.69,0,0,0-.87,2Z"/><path class="cls-5" d="M312.83,27.84h-.38a3.78,3.78,0,0,0-.86-.14c-.4,0-.73-.05-1-.05a9.36,9.36,0,0,0-1.59.12,9.17,9.17,0,0,0-1.48.4V37h-4.22V23.83h4.22v1.93A8.9,8.9,0,0,1,310,24.17a5.32,5.32,0,0,1,1.89-.39h.5l.49,0Z"/><path class="cls-2" d="M60,110.53a12,12,0,0,1-.88,3.78,8.71,8.71,0,0,1-1.87,2.86,7.32,7.32,0,0,1-2.7,1.75,8.07,8.07,0,0,1-3.4.43,8,8,0,0,1-3.18-.91,7.35,7.35,0,0,1-2.46-2.08A9.27,9.27,0,0,1,44,113.24a11.6,11.6,0,0,1-.35-4,11.3,11.3,0,0,1,.85-3.61,9.28,9.28,0,0,1,1.88-2.82,8.05,8.05,0,0,1,6.07-2.4,7,7,0,0,1,3.36.91,7.78,7.78,0,0,1,2.46,2.25,9.6,9.6,0,0,1,1.45,3.21A11,11,0,0,1,60,110.53Zm-3.21-.42a8.26,8.26,0,0,0-.18-2.44,6.63,6.63,0,0,0-.85-2.11,5.27,5.27,0,0,0-1.42-1.51,3.63,3.63,0,0,0-1.9-.64,3.73,3.73,0,0,0-2,.4,5.4,5.4,0,0,0-1.64,1.34,7.26,7.26,0,0,0-1.13,2,8.23,8.23,0,0,0-.52,2.38,8,8,0,0,0,.21,2.61,7,7,0,0,0,.95,2.14,4.84,4.84,0,0,0,1.51,1.45,4,4,0,0,0,1.89.59,4.16,4.16,0,0,0,3.5-1.52A7.89,7.89,0,0,0,56.82,110.11Z"/><path class="cls-3" d="M344,125.09l-6.36.08v-2.93l1.5.05L339.3,109l-1.65.31-.34-2.6,5-1.53.11,17.17,1.56,0Z"/><path class="cls-3" d="M361.55,116a12.32,12.32,0,0,1-.88,3.78,9,9,0,0,1-1.87,2.86,7.44,7.44,0,0,1-2.71,1.75,8,8,0,0,1-3.39.43,8.13,8.13,0,0,1-3.19-.91,7.42,7.42,0,0,1-2.45-2.08,9,9,0,0,1-1.52-3.13,11.09,11.09,0,0,1-.35-4A10.79,10.79,0,0,1,346,111a9,9,0,0,1,1.87-2.82,8.11,8.11,0,0,1,2.71-1.81,7.94,7.94,0,0,1,3.36-.59,7,7,0,0,1,3.37.91A7.86,7.86,0,0,1,359.8,109a9.41,9.41,0,0,1,1.45,3.21A11.25,11.25,0,0,1,361.55,116Zm-3.21-.42a9,9,0,0,0-.18-2.44,6.54,6.54,0,0,0-.86-2.11,5.14,5.14,0,0,0-1.42-1.51,3.52,3.52,0,0,0-1.9-.64,3.75,3.75,0,0,0-2.05.4,5.22,5.22,0,0,0-1.63,1.34,6.86,6.86,0,0,0-1.13,2,8,8,0,0,0-.52,2.39,7.46,7.46,0,0,0,.21,2.61,6.84,6.84,0,0,0,.95,2.14,4.84,4.84,0,0,0,1.51,1.45,4.07,4.07,0,0,0,1.88.59,4.13,4.13,0,0,0,3.5-1.53A7.83,7.83,0,0,0,358.34,115.54Z"/><path class="cls-3" d="M379.08,116a12,12,0,0,1-.88,3.78,8.87,8.87,0,0,1-1.87,2.86,7.28,7.28,0,0,1-2.71,1.75,8.36,8.36,0,0,1-6.57-.48,7.35,7.35,0,0,1-2.46-2.08,9,9,0,0,1-1.52-3.13,11.32,11.32,0,0,1-.35-4,11,11,0,0,1,.85-3.6,9.19,9.19,0,0,1,1.87-2.82,8.21,8.21,0,0,1,2.71-1.81,7.94,7.94,0,0,1,3.36-.59,7,7,0,0,1,3.37.91,7.89,7.89,0,0,1,2.46,2.25,9.6,9.6,0,0,1,1.45,3.21A11.52,11.52,0,0,1,379.08,116Zm-3.21-.42a8.26,8.26,0,0,0-.18-2.44,6.53,6.53,0,0,0-.85-2.11,5.17,5.17,0,0,0-1.43-1.51,3.52,3.52,0,0,0-1.9-.64,3.76,3.76,0,0,0-2.05.4,5.22,5.22,0,0,0-1.63,1.34,7.1,7.1,0,0,0-1.13,2,8.29,8.29,0,0,0-.52,2.39,8,8,0,0,0,.21,2.61,7.07,7.07,0,0,0,.95,2.14,4.84,4.84,0,0,0,1.51,1.45,4.07,4.07,0,0,0,1.88.59,4.15,4.15,0,0,0,3.51-1.53A7.83,7.83,0,0,0,375.87,115.54Z"/></svg>