<svg xmlns="http://www.w3.org/2000/svg" viewBox="0 0 595.28 841.89"><defs><style>.cls-1{fill:#4e6672;}.cls-2{fill:#ebe593;}.cls-3{fill:#fecf60;}.cls-4{fill:#eeede6;}.cls-5{fill:#e38785;}.cls-6{fill:#201f1e;}.cls-7{fill:none;}.cls-8{fill:#b65629;}</style></defs><g id="Layer_1" data-name="Layer 1"><path class="cls-1" d="M357.07,498.59s197.66-27.17,212.81-43.12-4.43-56.57-4.43-56.57-45.48,9.47-97,18.8c-65.89,11.93-141.68,23.63-144.87,15C317.9,417.34,357.07,498.59,357.07,498.59Z"/><path class="cls-1" d="M233,442.86S54.51,380.56,36,388.48s-16.14,53.77-16.14,53.77,42.2,11.39,89.51,25.57C169.83,486,238.71,508.66,238.4,518,237.84,534.54,233,442.86,233,442.86Z"/><path class="cls-1" d="M194.35,661.54c4.62,2.19,18.67,9.85,23.83,11.25,14.14,3.84,28.19,8,43,8.63a5.78,5.78,0,0,1,.72,0c14.34,2.26,44.39-6.73,49.31-6.6,22.14.58,42.22,8.36,64.32,7.73,4.52-.13,27.81-6.19,38.57-9.7,9.66-3.15,19.62-5.68,27.88-14.56-4.07,21.13-10.32,39.85-20.41,57.14-8.15,14-12.56,28.94-14.19,45-2,20.06-1.29,40.38-5.47,60.23-2.87,13.66-8.78,18.47-22.9,19.62a69.25,69.25,0,0,1-19.83-1.72c-9.68-2-14.6-10.28-15.48-24.38-1-16.17-.47-32.37-1.64-48.58-1.31-18.22-.5-18.28-18.71-18.25-8.35,0-16.7.18-25,0-3.71-.11-5.23,1.31-6.69,4.7-9.82,22.63-17.14,46.18-25.88,69.2-3.31,8.7-6.71,18.15-18,18.61-12.93.54-25.28-2.82-34.47-12.3-6.82-7-4.8-16.81-3.17-25.29,3.6-18.81,8.43-37.39,12.39-56.14,1.91-9,1.18-17.4-4.63-25.7-12.36-17.68-20.76-37.25-23.42-58.94Z"/><path class="cls-2" d="M436,661.28c-53.14,44-147.47,2.41-227.25,27.78-11.35,3.62-13.58,1.66-17.11-10.3C190.15,618,207.54,506.81,220.45,463.3S224.91,446,232,444.52c50.08-10.47,94.86-.92,143.34-3.16,6.89-.32,7.33,7.46,9.3,12.93-7,26.93,42.56,173.12,54.44,186.25S443.54,655,436,661.28Z"/><polygon class="cls-3" points="210.13 504.79 390.54 500.35 399.41 535.85 204.21 542.25 210.13 504.79"/><polygon class="cls-3" points="197.8 586.13 411.74 575.28 422.09 604.86 194.35 621.12 197.8 586.13"/><path class="cls-3" d="M191.39,671.4l247.73-30.86,6.13,9.17-3.3,8.61L430.47,667l-20.71,8.87-34.26,6.74-19.47.65-17.74-.49-56.69-2.46-29.58.49-49.78,9.86a10.77,10.77,0,0,1-9.86-7.89C189.92,674.85,191.39,671.4,191.39,671.4Z"/></g><g id="Layer_2" data-name="Layer 2"><path class="cls-4" d="M517.53,191.18c-7.58-23.13-18-45-29.27-66.39-8.84-12.63-17.19-25.58-27.37-37.24a224.07,224.07,0,0,0-54.71-45.29,17.07,17.07,0,0,1-2-.75c-47-24.62-96.42-29.21-147.84-18.66-18.88,3.87-36.23,11.7-53.51,19.77-20.25,13-38.92,27.85-54.67,46.2-9.73,11.35-17.61,24-26.39,36-1.14,2.41-2.17,4.88-3.41,7.24-24.8,47.53-43.19,97-39.25,151.66,4.84,67.16,37.28,116,99.91,143.18,31.44,13.69,64.7,19.44,98.69,21.3,47.37,2.6,94.3.12,139.56-15.64,56.84-19.78,94.88-57.46,109.33-116.95C536.87,273.19,530.9,232,517.53,191.18ZM153.44,360.26c-6.1,3.34-13,1.64-19.16-1.4C117.09,350.38,108.6,325.22,117,308c7.19-14.79,22.7-18.95,36.37-9.61,11.91,8.11,16.36,20.07,17.63,40.18C172,345.93,164.18,354.37,153.44,360.26ZM479,357.16c-16.75,11-36.41,1.23-39-19.33-.23-1.93-.2-3.91-.32-6.05.22-13.7,5.46-25.09,16.86-33.27,13.75-9.85,30.38-5.18,37.13,10.27C500.64,324.65,493.68,347.57,479,357.16Z"/><path class="cls-1" d="M488.25,124.79c-8.82-12.63-17.18-25.58-27.36-37.24a224.22,224.22,0,0,0-54.71-45.28c12.54-25.84,33.21-39.54,61.9-39.61,36.86-.08,65.86,29.71,64.89,65.65-.62,23.42-17.8,47.54-39.7,55.61A27.58,27.58,0,0,1,488.25,124.79Z"/><path class="cls-1" d="M202.79,42.61c-20.25,13-38.92,27.86-54.67,46.22-9.74,11.34-17.61,24-26.39,36-19.8-4-38.49-24.59-43-45.77-6.84-32.46,12.16-61.73,39.7-72,32.14-12,66.46.52,82.45,29.35C202,38.42,203,40.31,202.79,42.61Z"/><path class="cls-5" d="M439.72,331.78c.22-13.7,5.47-25.09,16.86-33.26,13.76-9.86,30.38-5.19,37.13,10.26,6.93,15.87,0,38.79-14.69,48.38-16.75,11-36.4,1.23-39-19.32C439.8,335.9,439.83,333.92,439.72,331.78Z"/><path class="cls-5" d="M171,338.52c1,7.41-6.79,15.85-17.53,21.75-6.1,3.34-13,1.63-19.17-1.41C117.1,350.38,108.59,325.21,117,308c7.18-14.78,22.7-18.94,36.37-9.6C165.24,306.47,169.7,318.42,171,338.52Z"/><path class="cls-6" d="M202,373.73c-2,8.91-15.3,7.46-13.75-1.54-.82-32.63,78.91-51.55,105.27-65.78,9.9-6,2-22.09,4.7-31.93.18-4.28-.82-6.3-5.55-7.14-20-1.74-45.27-28.49-19.18-41.06,40.87-25.56,126.85,14.2,49.1,41.21-10.17,2.44-2.47,23.4-5,31.74.32,11.82,68.3,30.2,83.12,41.91,46.49,19.8,20,54.22,12.95,32-2.76-24.11-79-42.75-101.13-56.32a9.28,9.28,0,0,0-8.07-.1C274.86,330.19,204,364.73,202,373.73Z"/><path class="cls-7" d="M234,352.93c0-.92,62.52-1.67,139.79-1.67"/><path class="cls-8" d="M412,368.92l-41.25-9.59-47-9-15.53-1.1c-30.7,0-103.68,14.95-106.28,23,.54-2.62,1.37-12.9,10.87-15.25,4.36-1.08,6-4.43,8.1-5.38,19.16-8.81,78.92-36.08,83.47-36.39a36.24,36.24,0,0,1,8.07.08l76.2,32.81S409.78,354.72,412,368.92Z"/><path class="cls-1" d="M251.44,156.49c-2,38.27-16.17,71.31-46.27,96.77a75.87,75.87,0,0,1-23.54,13.4c-27.56,9.89-54.26-2-64.74-29.32-12.51-32.59-6-63.63,9.07-93.55a110.37,110.37,0,0,1,35.51-41.57C201.8,74,244.26,93,250.28,142,250.85,146.57,251,151.24,251.44,156.49ZM207.81,166c-.11-13.31-3.11-23.72-14-29.79-10.25-5.71-20.32-2.86-29.1,3.31-16.09,11.32-24.51,27.25-24.37,47,.07,10.95,3.63,21,14.25,26.47,11,5.63,21.16,2.27,30.29-4.47C199.64,197.58,206.75,182.48,207.81,166Z"/><path class="cls-1" d="M413.42,90.5c16.45-1.7,30.26,6,42.53,16.56,26.39,22.63,41,51.77,43.9,86.22,1.39,16.25.38,32.6-7.18,47.84-12.33,24.86-36.81,35-62.93,25.52-22.28-8.1-38.09-23.9-49.94-43.76-17.34-29.06-25.06-60-16.07-93.68a57.13,57.13,0,0,1,12.07-23.31C386.52,93.68,394.47,90.47,413.42,90.5Zm-9.91,73.69c.08,20.58,13.4,41.62,30.94,48.91,15.77,6.54,30.58-.62,35.12-17,6.21-22.37-9.06-52.52-30.73-60.67-14.87-5.59-28.36.75-33.53,15.73A37.4,37.4,0,0,0,403.51,164.19Z"/><circle class="cls-6" cx="180.34" cy="182" r="20.87"/><circle class="cls-6" cx="432.15" cy="181.97" r="20.87"/></g></svg>