<svg id="Layer_1" data-name="Layer 1" xmlns="http://www.w3.org/2000/svg" viewBox="0 0 170.08 198.43"><defs><style>.cls-1{fill:#e67f66;}.cls-2{fill:#ffda75;}.cls-3{fill:#669d33;}.cls-4{fill:#eb683a;}</style></defs><path class="cls-1" d="M159.16,138.75l-2.3.1c-12.93.82-25.18-.81-36-7.78-1.16.44-2.33.86-3.49,1.28a32.23,32.23,0,0,1-15,.36c-4,19.1-10.47,23-36,23.81C50.69,149.17,48.59,135.26,47.62,122,47,135.48,52.15,147.82,64,157.48c.64.93,1.25,1.85,1.89,2.78a6.52,6.52,0,0,1-1.07,6.19l-.73.94c-36.74,3.75-49.8-2.75-56.71-28.22C-14.94,78.78,24.66,19,64.75,5.41,78,.92,90.82-1.71,103.11,7.54c21.65,5.81,33.84,21.27,43.11,39.72C170.8,70.79,175.08,101,159.16,138.75Z"/><path class="cls-2" d="M63.91,152.32C82.08,153,96.15,147,103,129.17l14.5-1c14,0,27.64,1.27,39.36,9.94C151.63,166,123.15,180.88,94,170.93c-8.42-1-17.29,0-24.56-5.72a8.45,8.45,0,0,1-4.66-4.09v0C61.59,158.47,61.55,155.51,63.91,152.32Z"/><path class="cls-3" d="M94,170.93c26.19-1,49.74-7,62.88-32.47l2.29-.1c2.43,14.27,11.24,26.92,9.79,42.35-1.15,12.34-4.79,19.06-18.91,15.72C129.58,191.59,108.17,189,94,170.93Z"/><path class="cls-3" d="M7.35,138.78c10.46,25.72,35.83,22.87,56.72,28.6-8,5.58-17.1,8-26.65,9.05-10.55,1.21-23.45,9.39-31-.34C-2,165.32-.46,151.07,7.35,138.78Z"/><path class="cls-4" d="M63.91,152.32c.28,2.94.56,5.89.85,8.83-21.69-11.35-20.54-30.71-17.47-50.82C50.34,125.34,52.44,140.73,63.91,152.32Z"/></svg>