<svg id="Layer_1" data-name="Layer 1" xmlns="http://www.w3.org/2000/svg" xmlns:xlink="http://www.w3.org/1999/xlink" viewBox="0 0 396.67 100.55"><defs><style>.cls-1{fill:none;}.cls-2{fill:#00aaa5;}.cls-3{clip-path:url(#clip-path);}.cls-4{fill:#00b0a6;}.cls-5{fill:#fff;}</style><clipPath id="clip-path"><rect class="cls-1" width="396.67" height="100.55" rx="12"/></clipPath></defs><rect class="cls-2" x="-0.48" y="0.04" width="396.58" height="100.64" rx="12"/><g class="cls-3"><polygon class="cls-4" points="381.48 118.53 362.95 107.9 435.87 -17.54 454.41 -6.91 381.48 118.53"/><polygon class="cls-4" points="331.48 118.53 312.95 107.9 385.87 -17.54 404.41 -6.91 331.48 118.53"/><polygon class="cls-4" points="281.48 118.53 262.95 107.9 335.87 -17.54 354.41 -6.91 281.48 118.53"/><polygon class="cls-4" points="231.48 118.53 212.95 107.9 285.87 -17.54 304.41 -6.91 231.48 118.53"/><polygon class="cls-4" points="181.48 118.53 162.95 107.9 235.87 -17.54 254.41 -6.91 181.48 118.53"/><polygon class="cls-4" points="131.48 118.53 112.95 107.9 185.87 -17.54 204.41 -6.91 131.48 118.53"/><polygon class="cls-4" points="81.48 118.53 62.95 107.9 135.87 -17.54 154.41 -6.91 81.48 118.53"/><polygon class="cls-4" points="31.48 118.53 12.95 107.9 85.87 -17.54 104.41 -6.91 31.48 118.53"/><polygon class="cls-4" points="-18.52 118.53 -37.05 107.9 35.87 -17.54 54.41 -6.91 -18.52 118.53"/></g><path class="cls-5" d="M181.2,42.25a12.46,12.46,0,0,1-.77,4.3,9.37,9.37,0,0,1-2.2,3.52A13.35,13.35,0,0,1,173.87,53a15.79,15.79,0,0,1-6,1h-5.25V64.64H154.2V31.92h13.88a22,22,0,0,1,5.27.54,12.47,12.47,0,0,1,3.79,1.62,8.74,8.74,0,0,1,3,3.32A10.49,10.49,0,0,1,181.2,42.25Zm-8.72.19a3.86,3.86,0,0,0-.75-2.38A4.08,4.08,0,0,0,170,38.67a7.68,7.68,0,0,0-2.57-.58c-.83,0-1.95-.06-3.34-.06h-1.45v9.78h2.42a20.24,20.24,0,0,0,3.55-.26,5.14,5.14,0,0,0,2.34-1,4.07,4.07,0,0,0,1.17-1.68A6.65,6.65,0,0,0,172.48,42.44Z"/><path class="cls-5" d="M194.67,64.64h-7.93V30.45h7.93Z"/><path class="cls-5" d="M217.06,62c-.43.32-.95.71-1.58,1.16a11.93,11.93,0,0,1-1.78,1.08,11.39,11.39,0,0,1-2.42.78,13.77,13.77,0,0,1-2.75.25,8.41,8.41,0,0,1-5.89-2.17,7.22,7.22,0,0,1-2.37-5.56,7.54,7.54,0,0,1,1.21-4.42,8.16,8.16,0,0,1,3.43-2.7A19.34,19.34,0,0,1,210.36,49c2.17-.28,4.41-.48,6.74-.61v-.14a2.83,2.83,0,0,0-1.67-2.82,12,12,0,0,0-4.92-.78,14.08,14.08,0,0,0-4.17.69c-1.48.46-2.54.82-3.19,1.07h-.72v-6c.83-.22,2.19-.48,4.07-.78a35.89,35.89,0,0,1,5.66-.45c4.5,0,7.74.7,9.74,2.08s3,3.56,3,6.51V64.64h-7.84Zm0-3.84V53.06c-1.07.09-2.23.21-3.47.36a18,18,0,0,0-2.84.54A4,4,0,0,0,208.94,55a2.74,2.74,0,0,0-.63,1.88,4.79,4.79,0,0,0,.14,1.25,1.85,1.85,0,0,0,.65.92,3.34,3.34,0,0,0,1.21.64,8.41,8.41,0,0,0,2.2.21,6.59,6.59,0,0,0,2.41-.48A7.72,7.72,0,0,0,217.06,58.19Z"/><path class="cls-5" d="M243.31,55.92l5.63-16h8.13L243.36,73.69h-8.59l3.93-9.24L229.1,40h8.31Z"/></svg>