<svg id="Layer_1" data-name="Layer 1" xmlns="http://www.w3.org/2000/svg" viewBox="0 0 595.28 841.89"><defs><style>.cls-1{fill:#adadad;}.cls-2{fill:#d28a96;}.cls-3{fill:#e9484c;}.cls-4{fill:#ba2b34;}.cls-5{fill:#f0889b;}.cls-6{fill:#ed6b51;}.cls-7{fill:#e9dee3;}.cls-8{fill:#b56e6f;}.cls-9{fill:#921d1b;}</style></defs><path class="cls-1" d="M411.11,520.06s18.3,22.18,25.93,40.42c6.74,16.1,25,49.86,23.93,57.24-1.73,12-33.39,19.82-41.17-4.67s-44-83.87-44-83.87Z"/><path class="cls-1" d="M194,524.1s-18.29,22.18-25.93,40.41c-6.74,16.11-25,49.87-23.93,57.25,1.73,12,33.4,19.82,41.17-4.68s44-83.86,44-83.86Z"/><path class="cls-1" d="M237.84,837.56c-3.85-13.11-4.92-27-7.21-40.31-6.57-38.16-9.11-77.09-19.48-114.58-3.29-11.89,2.45-17.6,13.68-16.49,19.88,2,39.7,5,59.74,4.06,1.65,45.76,2.52,91.59,5.26,137.27,1.48,24.53-11.3,34-31.11,32.88"/><path class="cls-1" d="M347.12,835.85c-3.85-13.1-4.91-27-7.21-40.31-6.57-38.16-9.11-77.09-19.48-114.58-3.29-11.88,2.45-17.6,13.69-16.49,19.87,2,39.69,5,59.73,4.06,1.65,45.77,2.52,91.59,5.26,137.28,1.48,24.52-11.29,34-31.1,32.87"/><polygon class="cls-2" points="175.17 775.96 174.74 775.62 175.11 776.02 175.17 775.96"/><path class="cls-3" d="M439.07,675.39c14.85,37.65,3.21,22.42-20,26.34-88.35,14.93-162.74,34.54-257.8,7.07-24.93-7.21-18-11.55-23.84-26.21,34.35-48.67,86.1-78,85.4-133.84a32,32,0,0,0-2.05,5.07c-15.06-5.41-40.54-7.94-49.88-20.83,50.18-59.19-19.12,38.13,32.14-40.11,6.16-9.4,21-3,26.32-1.1s.85,1.5,4.29,2.86c2.84-3.45,5.22-6.15,10.91-5.72,37.67,2.91,74.33,3.53,112,.3,4.14-.35,5.61,1.1,8.22,3,3.35-1.43-1.37-.75,4-2.77s20.31-8.42,26.62,1c52.78,79.15-18.67-19,33.42,40.73C420,543.54,396,546.08,381.31,550.6c1,1.07-2.19-2.8,1.45,1.41C382.54,607.68,424.23,637.74,439.07,675.39Z"/><polygon class="cls-3" points="266.16 488.9 263.36 472.06 339.14 472.06 339.14 493.11 270.37 498.72 266.16 488.9"/><path class="cls-1" d="M416.86,478.46C332.74,508,247,506.69,165.94,472.28c-73.26-31.08-88.75-104-63.34-172.85,8.6-23.35,22.54-44.61,42.77-61,10.59-8.58,11.56-18.23,8.72-31.21-10.05-46-18-92.23-11.59-139.75,8.53-62.93,49.76-79.42,102-57.3,22.45,9.52,26.82,32.18,29.44,53.32,1.69,13.68.31,27.72.31,44.45-1.13,18.14,2,39.21-3.93,60.18-4,14,3.21,20.88,18.71,17,2.92-.73,5.71-2.35,8.63-2.52,27-1.59,30.56-6.44,25.51-32.92-6.91-36.19-5.43-72.46,2-108.33C328.86,23.58,354.38,3,372.34,2.22c27.51-1.11,55.48-2.51,69,28.62,14,32.37,11.73,67.1,6.76,101.43-4.14,28.63.06,56.74-9.52,84.52-3.9,11.31,5.48,17.36,12.42,23.82,27.95,26,45.62,56.07,51.57,94.34C513.15,403.09,478.11,457,416.86,478.46Z"/><path class="cls-4" d="M201.41,190.83s33.78-.4,37.64-12,8.09-133.5-2.54-143.2C229.25,29,214,14.82,185,30.26c-16.56,8.83-25.17,49.73-19.34,81.59,2.76,15.06-5.66,57.12,8,72.05C184,195.19,201.41,190.83,201.41,190.83Z"/><path class="cls-4" d="M382.23,182.44s33.78-.4,37.64-12S428,37,417.33,27.25c-7.26-6.63-22.55-20.82-51.49-5.39-16.56,8.83-25.18,49.73-19.34,81.6,2.76,15.06-5.67,57.12,8,72.05C364.86,186.8,382.23,182.44,382.23,182.44Z"/><path class="cls-5" d="M233.21,124.86c-1.49,15.58.88,25.93-3,36.07-5.36,13.92-15.39,18.45-29.63,17.72-13.45-.68-19.17-7.55-22-20.16-7-30.76-5-61.76-2.49-92.52,1.07-13,7.85-25.73,24.78-26.54,17.63-.84,22.85,10.75,24.81,25.06C228.62,86.32,231.14,108.21,233.21,124.86Z"/><path class="cls-5" d="M414.71,113.87c-1.48,15.59.89,25.94-3,36.07-5.36,13.92-15.39,18.45-29.63,17.73-13.45-.69-19.17-7.55-22-20.16-7-30.77-5-61.76-2.49-92.53,1.07-13,7.85-25.73,24.78-26.54C400,27.6,405.17,39.19,407.13,53.5,410.12,75.33,412.64,97.22,414.71,113.87Z"/><ellipse class="cls-6" cx="400.94" cy="341.42" rx="37.42" ry="44.02" transform="translate(4.81 688.4) rotate(-81.63)"/><path class="cls-7" d="M399.55,331.86c-1.17,7.92-4.94,10.85-12.46,9.69-6.2-1-11-7.17-10.15-13.13s7.43-10.59,13.62-9.73C397.5,319.66,400.67,324.3,399.55,331.86Z"/><ellipse class="cls-6" cx="196.68" cy="340.58" rx="44.02" ry="37.42" transform="translate(-51.96 35.86) rotate(-9.21)"/><path class="cls-7" d="M192.8,329.2c1.27,7.91-1.43,11.84-9,13-6.2,1-12.65-3.51-13.65-9.45s3.89-12.34,10.06-13.39C187.16,318.19,191.59,321.66,192.8,329.2Z"/><path class="cls-8" d="M156.41,262.77s63.07-29.53,73.9-5.55-35.44,9.32-35.44,9.32Z"/><path class="cls-8" d="M437.81,263.81s-63.07-29.53-73.9-5.55,35.44,9.32,35.44,9.32Z"/><path class="cls-8" d="M300.22,464.47c10,3,29.24-4.23,29.32,5.73.07,9.52-19.15,5.05-29.55,5-10.89-.09-30.42,4.87-30.39-6.16C269.63,461,289.53,467.1,300.22,464.47Z"/><path class="cls-8" d="M310.64,388.78c-.37,7-3.8,11.15-10.69,11.46-7.09.32-10.87-3.79-11.18-9.93-.27-5.57,3.31-9.07,9.32-9.59C305,380.13,309,383.71,310.64,388.78Z"/><polygon class="cls-9" points="218.14 577.32 383.42 571 393.88 598.37 207.68 598.37 218.14 577.32"/><polygon class="cls-9" points="188.97 622.23 406.05 622.23 420.08 642.82 167.92 646.09 188.97 622.23"/><polygon class="cls-9" points="147.33 668.08 435.05 666.67 444.41 689.6 139.85 691.94 137.47 682.59 147.33 668.08"/><path class="cls-9" d="M186.16,714.86l181.06-4.68s-77.67,14.51-103.4,12.17c0,0-22.92.93-42.57-1.41A333.46,333.46,0,0,1,186.16,714.86Z"/></svg>