<svg id="Layer_1" data-name="Layer 1" xmlns="http://www.w3.org/2000/svg" xmlns:xlink="http://www.w3.org/1999/xlink" viewBox="0 0 255.12 56.69"><defs><style>.cls-1{fill:none;}.cls-2{clip-path:url(#clip-path);}.cls-3{fill:#00b0a6;}.cls-4{fill:#00aaa5;}.cls-5{clip-path:url(#clip-path-2);}.cls-6{fill:#fff;}</style><clipPath id="clip-path"/><clipPath id="clip-path-2"><rect class="cls-1" x="0.29" y="-0.43" width="254.53" height="56.8" rx="12"/></clipPath></defs><g class="cls-2"><rect class="cls-3" x="-104.01" y="27.72" width="146.97" height="25.88" transform="translate(-47.69 -7.2) rotate(-56.63)"/></g><rect class="cls-4" x="0.29" y="-0.3" width="254.53" height="56.8" rx="12"/><g class="cls-5"><rect class="cls-3" x="205.96" y="19.97" width="76.39" height="14.88" transform="matrix(0.55, -0.84, 0.84, 0.55, 86.97, 216.24)"/><rect class="cls-3" x="170.96" y="19.97" width="76.39" height="14.88" transform="translate(71.22 187.01) rotate(-56.63)"/><rect class="cls-3" x="135.96" y="19.97" width="76.39" height="14.88" transform="translate(55.47 157.78) rotate(-56.63)"/><rect class="cls-3" x="100.96" y="19.97" width="76.39" height="14.88" transform="translate(39.73 128.55) rotate(-56.63)"/><rect class="cls-3" x="65.96" y="19.97" width="76.39" height="14.88" transform="matrix(0.55, -0.84, 0.84, 0.55, 23.98, 99.32)"/><rect class="cls-3" x="30.96" y="19.97" width="76.39" height="14.88" transform="translate(8.23 70.09) rotate(-56.63)"/><rect class="cls-3" x="-4.04" y="19.97" width="76.39" height="14.88" transform="translate(-7.52 40.86) rotate(-56.63)"/><rect class="cls-3" x="-39.04" y="19.97" width="76.39" height="14.88" transform="translate(-23.27 11.63) rotate(-56.63)"/></g><path class="cls-6" d="M78.84,32.32a6.63,6.63,0,0,1-3.37,5.74q-3.37,2.2-9.16,2.21a29.38,29.38,0,0,1-5.84-.52,32.6,32.6,0,0,1-4.66-1.33V32.69h.76A16.91,16.91,0,0,0,61.4,35a17.23,17.23,0,0,0,5.12.82c.43,0,1,0,1.67-.1a7.06,7.06,0,0,0,1.68-.32,4.18,4.18,0,0,0,1.31-.72,1.57,1.57,0,0,0,.52-1.28A1.67,1.67,0,0,0,71,32.07a5.68,5.68,0,0,0-2.2-.88q-1.52-.32-3.21-.6a27.63,27.63,0,0,1-3.18-.71,10.26,10.26,0,0,1-4.89-2.66A6,6,0,0,1,56,23.05c0-2.23,1.12-4,3.37-5.45A16.1,16.1,0,0,1,68,15.49a30.67,30.67,0,0,1,5.25.45,27.67,27.67,0,0,1,4.5,1.15V22.6H77a14.9,14.9,0,0,0-4-1.93,15.36,15.36,0,0,0-4.83-.78,14.17,14.17,0,0,0-1.72.1,7.06,7.06,0,0,0-1.66.4,3.17,3.17,0,0,0-1.21.73,1.48,1.48,0,0,0-.51,1.11,1.62,1.62,0,0,0,.82,1.46,10.08,10.08,0,0,0,3.07.92l2.85.53c.91.17,1.89.41,2.94.71a10.13,10.13,0,0,1,4.57,2.44A5.63,5.63,0,0,1,78.84,32.32Z"/><path class="cls-6" d="M103.25,31.88H88.34a4,4,0,0,0,1.82,3.25,8.86,8.86,0,0,0,4.93,1.12,12.34,12.34,0,0,0,4-.66,13.1,13.1,0,0,0,3-1.41h.73v4.64A25.38,25.38,0,0,1,98.71,40a24.06,24.06,0,0,1-4.33.36c-4.07,0-7.2-.82-9.37-2.45a8.15,8.15,0,0,1-3.25-6.95,8.76,8.76,0,0,1,3.08-7.07q3.09-2.61,8.46-2.61c3.3,0,5.79.74,7.45,2.22a8.11,8.11,0,0,1,2.5,6.4ZM96.77,28.5a3.74,3.74,0,0,0-1-2.73,4.17,4.17,0,0,0-3-.92,5.18,5.18,0,0,0-3.09.87,3.52,3.52,0,0,0-1.36,2.78Z"/><path class="cls-6" d="M120.83,39.67a20.5,20.5,0,0,1-2.22.38,25.87,25.87,0,0,1-2.88.14c-2.53,0-4.42-.46-5.65-1.37s-1.86-2.47-1.86-4.67V25.72h-2.67V21.8h2.67V16.64h6.53V21.8h6.08v3.92h-6.08v6.4c0,.63,0,1.18,0,1.66a3.08,3.08,0,0,0,.29,1.27,1.92,1.92,0,0,0,.89.89,4.2,4.2,0,0,0,1.87.33,6.49,6.49,0,0,0,1.32-.19,5.86,5.86,0,0,0,1.15-.36h.54Z"/><path class="cls-6" d="M137.71,39.67a20.28,20.28,0,0,1-2.23.38,25.55,25.55,0,0,1-2.87.14c-2.53,0-4.42-.46-5.65-1.37s-1.86-2.47-1.86-4.67V25.72h-2.68V21.8h2.68V16.64h6.53V21.8h6.08v3.92h-6.08v6.4c0,.63,0,1.18,0,1.66a3.08,3.08,0,0,0,.29,1.27,1.87,1.87,0,0,0,.89.89,4.2,4.2,0,0,0,1.87.33,6.58,6.58,0,0,0,1.32-.19,5.86,5.86,0,0,0,1.15-.36h.54Z"/><path class="cls-6" d="M148.31,19.23h-6.89V14.84h6.89Zm-.18,20.6H141.6v-18h6.53Z"/><path class="cls-6" d="M174.67,39.83h-6.53V30.89a17.6,17.6,0,0,0-.13-2.18,4.26,4.26,0,0,0-.43-1.6,2.11,2.11,0,0,0-1.06-.86,5.33,5.33,0,0,0-2-.28,6.69,6.69,0,0,0-1.8.26,10.71,10.71,0,0,0-2,.82V39.83h-6.53v-18h6.53v2a17.36,17.36,0,0,1,3.34-1.85,9.39,9.39,0,0,1,3.55-.64,7.34,7.34,0,0,1,5.14,1.7,6.6,6.6,0,0,1,1.85,5.09Z"/><path class="cls-6" d="M200.41,37.76A10,10,0,0,1,199.6,42a6.57,6.57,0,0,1-2.28,2.72,10.12,10.12,0,0,1-3.54,1.44,22.84,22.84,0,0,1-4.68.44,38.28,38.28,0,0,1-4.17-.23c-1.36-.15-2.55-.33-3.55-.54V41.34h.79a22.21,22.21,0,0,0,2.91.77,15.78,15.78,0,0,0,3.07.34,11.75,11.75,0,0,0,2.94-.3,4,4,0,0,0,1.72-.84,2.89,2.89,0,0,0,.82-1.32,6.34,6.34,0,0,0,.25-1.92v-.34a9.87,9.87,0,0,1-2.6,1.35,9.64,9.64,0,0,1-3.18.5,9,9,0,0,1-6.58-2.28c-1.54-1.52-2.31-3.84-2.31-6.94a9.68,9.68,0,0,1,.7-3.86,8.5,8.5,0,0,1,2-2.82,8.19,8.19,0,0,1,2.94-1.75,10.41,10.41,0,0,1,3.57-.63,12.09,12.09,0,0,1,3,.35,10.16,10.16,0,0,1,2.44,1l.24-.8h6.33Zm-6.53-3.61V26a7.45,7.45,0,0,0-1.37-.33,10.09,10.09,0,0,0-1.46-.12,5.19,5.19,0,0,0-3.85,1.31,5,5,0,0,0-1.28,3.66c0,1.73.36,2.94,1.09,3.63a4.6,4.6,0,0,0,3.24,1,7,7,0,0,0,1.92-.27A7.71,7.71,0,0,0,193.88,34.15Z"/></svg>